<?xml version="1.0" standalone="no"?><!DOCTYPE svg PUBLIC "-//W3C//DTD SVG 1.1//EN" "http://www.w3.org/Graphics/SVG/1.1/DTD/svg11.dtd"><svg t="1690510673056" class="icon" viewBox="0 0 1024 1024" version="1.1" xmlns="http://www.w3.org/2000/svg" p-id="1510" width="32" height="32" xmlns:xlink="http://www.w3.org/1999/xlink"><path d="M887.8 213.6c-159.9-10.7-309-108.4-358.7-144.3-10.4-7.4-24.5-7.4-34.9 0-50.2 35.9-200.8 133.6-358.3 143.9-15.3 1-27.2 13.5-27.3 28.7V479c0 374.2 339.3 473.7 403.2 481.3 69-6.2 403.1-112.9 403.6-480.9V242.3c-0.1-15.3-12.2-27.9-27.6-28.7z m-190 455.8c-9 7.3-20.5 10.8-32.1 9.9h-74.8c-11.6 0.9-23.1-2.7-32.1-9.9-7.6-8-11.5-18.8-10.7-29.8v-69c-0.8-11 3.1-21.8 10.8-29.8 9.1-7.3 20.7-10.8 32.3-9.9h24.4V497H407.7v33.9h25.4c11.6-1 23.1 2.5 32.1 9.9 7.7 8 11.6 18.8 10.9 29.8v69c0.8 11-3.2 21.8-10.9 29.8-9 7.3-20.5 10.8-32.1 9.9h-74.8c-11.6 1-23.2-2.6-32.1-9.9-7.7-7.9-11.6-18.7-10.8-29.6v-69c-0.8-11 3.1-21.8 10.8-29.8 9-7.3 20.5-10.9 32.1-9.9h24.4v-45.6c0.3-6.6 5.9-11.7 12.6-11.5h99.5v-35.3h-24.4c-11.7 1-23.3-2.6-32.3-9.9-7.6-8-11.6-18.8-10.8-29.7v-69c-0.8-11 3.1-21.8 10.8-29.8 9-7.2 20.4-10.7 31.9-9.9h74.9c11.7-1 23.2 2.6 32.3 9.9 7.8 7.9 11.8 18.8 10.9 29.8v69c1 11-2.9 21.9-10.7 29.8-9.1 7.3-20.6 10.8-32.3 9.9H520v35.3h108c6.7-0.2 12.2 4.9 12.6 11.5v45.6h25.1c11.6-1 23.2 2.6 32.1 9.9 7.8 7.8 11.7 18.7 10.6 29.6v68.9c0.8 10.9-3 21.8-10.6 29.8z" fill="#ffffff" p-id="1511"></path></svg>