<svg t="1691486349578" class="icon" viewBox="0 0 1024 1024" version="1.1" xmlns="http://www.w3.org/2000/svg" p-id="27271" width="200" height="200"><path d="M753.152 833.536H270.848c-35.328 0-64.512 28.16-64.512 61.44 0 33.792 29.184 61.44 64.512 61.44h482.304c35.328 0 64.512-28.16 64.512-61.44s-28.672-61.44-64.512-61.44zM904.704 67.072H119.808c-45.568 0-82.432 36.864-82.432 82.432v522.24c0 45.568 36.864 82.432 82.432 82.432h784.896c45.568 0 82.432-36.864 82.432-82.432v-522.24c0-45.568-36.864-82.432-82.432-82.432zM336.896 585.728c0 16.896-13.824 30.72-30.72 30.72h-15.36c-16.896 0-30.72-13.824-30.72-30.72V235.52c0-16.896 13.824-30.72 30.72-30.72h15.36c16.896 0 30.72 13.824 30.72 30.72v350.208z m214.528 0c0 16.896-13.824 30.72-30.72 30.72h-15.36c-16.896 0-30.72-13.824-30.72-30.72V441.856c0-16.896 13.824-30.72 30.72-30.72h15.36c16.896 0 30.72 13.824 30.72 30.72v143.872z m214.016 0c0 16.896-13.824 30.72-30.72 30.72h-15.36c-16.896 0-30.72-13.824-30.72-30.72V372.736c0-16.896 13.824-30.72 30.72-30.72h15.36c16.896 0 30.72 13.824 30.72 30.72v212.992z" fill="#4985FF" p-id="27272"></path></svg>